<svg viewBox="0 0 640 400" data-background-color="#ffffff" preserveAspectRatio="xMidYMid meet" height="400" width="640" xmlns="http://www.w3.org/2000/svg" xmlns:xlink="http://www.w3.org/1999/xlink"><rect width="640" height="400" x="0" y="0" opacity="1" fill="#ffffff" data-fill-palette-color="background" id="background"></rect><g id="tight-bounds" transform="matrix(1,0,0,1,122.24000000000001,172.23981632855555)"><svg viewBox="0 0 395.52 55.520367342888925" height="55.520367342888925" width="395.52"><g><svg viewBox="0 0 485.499258545014 68.15103453458582" height="55.520367342888925" width="395.52"><g><rect width="4.44712780477322" height="59.17600683176771" x="73.89043491622715" y="4.487513851409055" fill="#113f67" opacity="1" stroke-width="0" stroke="transparent" fill-opacity="1" class="rect-r$-0" data-fill-palette-color="primary" rx="1%" id="r$-0" data-palette-color="#113f67"></rect></g><g transform="matrix(1,0,0,1,89.97925854501403,9.418847754056362)"><svg viewBox="0 0 395.52 49.313339026473095" height="49.313339026473095" width="395.52"><g id="textblocktransform"><svg viewBox="0 0 395.52 49.313339026473095" height="49.313339026473095" width="395.52" id="textblock"><g><svg viewBox="0 0 395.52 49.313339026473095" height="49.313339026473095" width="395.52"><g transform="matrix(1,0,0,1,0,0)"><svg width="395.52" viewBox="3 -35.5 292.73 36.5" height="49.313339026473095" data-palette-color="#113f67"><path d="M3-17.5L3-17.5Q3.05-25.85 7.63-30.43 12.2-35 20.25-35L20.25-35 23.5-35 23.5-30.6 19.65-30.6Q14.1-30.6 11.13-26.93 8.15-23.25 8.05-17.5L8.05-17.5Q8.15-11.75 11.13-8.08 14.1-4.4 19.65-4.4L19.65-4.4 23.5-4.4 23.5 0 20.25 0Q12.2 0 7.63-4.58 3.05-9.15 3-17.5ZM34.45-15.9L34.45 0 29.75 0 29.75-35 34.45-35 34.45-20.3 49.65-20.3 49.65-35 54.35-35 54.35 0 49.65 0 49.65-15.9 34.45-15.9ZM81-4.4L81 0 61.09 0 61.09-26.65Q61.09-30.35 63.45-32.6L63.45-32.6Q65.05-34.1 67.05-34.55 69.05-35 71.94-35L71.94-35 81-35 81-30.6 71.3-30.6Q65.8-30.6 65.8-26L65.8-26 65.8-20.3 77.34-20.3 77.34-15.9 65.8-15.9 65.8-4.4 81-4.4ZM91.19 0L86.49 0 86.49-22.75Q86.49-28.8 89.47-32.15 92.44-35.5 97.94-35.5L97.94-35.5Q103.49-35.5 106.47-32.8 109.44-30.1 109.44-25.2L109.44-25.2Q109.44-22.05 107.94-20.05 106.44-18.05 102.84-16.9L102.84-16.9 102.84-16.7Q106.59-15.25 107.87-12.58 109.14-9.9 109.14-3.75L109.14-3.75 109.14 0 104.44 0 104.44-6.4Q104.44-10.2 102.29-12.33 100.14-14.45 96.09-14.45L96.09-14.45 93.39-14.45 93.39-18.85 96.24-18.85Q101.04-18.85 102.89-20.8 104.74-22.75 104.74-25.45L104.74-25.45Q104.74-28 102.92-29.55 101.09-31.1 98.09-31.1L98.09-31.1Q94.64-31.1 92.92-29.15 91.19-27.2 91.19-22.75L91.19-22.75 91.19 0ZM119.89 0L115.19 0 115.19-22.75Q115.19-28.8 118.17-32.15 121.14-35.5 126.64-35.5L126.64-35.5Q132.19-35.5 135.17-32.8 138.14-30.1 138.14-25.2L138.14-25.2Q138.14-22.05 136.64-20.05 135.14-18.05 131.54-16.9L131.54-16.9 131.54-16.7Q135.29-15.25 136.56-12.58 137.84-9.9 137.84-3.75L137.84-3.75 137.84 0 133.14 0 133.14-6.4Q133.14-10.2 130.99-12.33 128.84-14.45 124.79-14.45L124.79-14.45 122.09-14.45 122.09-18.85 124.94-18.85Q129.74-18.85 131.59-20.8 133.44-22.75 133.44-25.45L133.44-25.45Q133.44-28 131.62-29.55 129.79-31.1 126.79-31.1L126.79-31.1Q123.34-31.1 121.62-29.15 119.89-27.2 119.89-22.75L119.89-22.75 119.89 0ZM160.84-35L165.54-35 165.54-32.5Q165.54-26.4 163.26-21.33 160.99-16.25 156.64-13.6L156.64-13.6 156.64 0 151.94 0 151.94-13.5Q147.59-16.1 145.24-21.08 142.89-26.05 142.89-32.05L142.89-32.05 142.89-35 147.69-35 147.69-32.5Q147.69-27.35 149.16-23.68 150.64-20 154.29-17.65L154.29-17.65Q160.84-22 160.84-32.5L160.84-32.5 160.84-35ZM193.73-4.4L202.28-4.4 202.28 0 194.98 0Q192.93 0 191.76-0.08 190.58-0.15 188.83-0.68 187.08-1.2 185.88-2.25L185.88-2.25Q184.03-3.95 183.48-6.33 182.93-8.7 182.93-11.9L182.93-11.9 182.93-35 187.63-35 187.63-12Q187.63-9.1 188.28-7.45L188.28-7.45Q189.58-4.4 193.73-4.4L193.73-4.4ZM234.38-17.35L234.38-17.35Q234.33-20.15 233.56-22.65 232.78-25.15 231.31-27.03 229.83-28.9 227.73-30 225.63-31.1 222.98-31.1L222.98-31.1Q220.33-31.1 218.23-30 216.13-28.9 214.66-27.03 213.18-25.15 212.41-22.65 211.63-20.15 211.58-17.35L211.58-17.35Q211.63-14.5 212.41-12.05 213.18-9.6 214.66-7.8 216.13-6 218.23-4.95 220.33-3.9 222.98-3.9L222.98-3.9Q225.63-3.9 227.73-4.95 229.83-6 231.31-7.8 232.78-9.6 233.56-12.05 234.33-14.5 234.38-17.35ZM206.53-17.35L206.53-17.35Q206.58-21.5 207.78-24.85 208.98-28.2 211.13-30.58 213.28-32.95 216.28-34.23 219.28-35.5 222.98-35.5L222.98-35.5Q226.63-35.5 229.66-34.23 232.68-32.95 234.83-30.58 236.98-28.2 238.18-24.85 239.38-21.5 239.43-17.35L239.43-17.35Q239.38-13.2 238.21-9.9 237.03-6.6 234.88-4.3 232.73-2 229.71-0.75 226.68 0.5 222.98 0.5L222.98 0.5Q219.28 0.5 216.26-0.75 213.23-2 211.08-4.3 208.93-6.6 207.76-9.9 206.58-13.2 206.53-17.35ZM265.13-35L269.83-35 269.83-18.15Q269.83-11.4 266.73-6.43 263.63-1.45 257.53 1L257.53 1Q251.48-1.4 248.33-6.25 245.18-11.1 245.18-17.7L245.18-17.7 245.18-35 249.98-35 249.98-18.3Q249.98-13.3 251.63-9.9 253.28-6.5 257.58-4.15L257.58-4.15Q261.78-6.55 263.45-9.95 265.13-13.35 265.13-18.3L265.13-18.3 265.13-35ZM295.73-4.4L295.73 0 275.83 0 275.83-26.65Q275.83-30.35 278.18-32.6L278.18-32.6Q279.78-34.1 281.78-34.55 283.78-35 286.68-35L286.68-35 295.73-35 295.73-30.6 286.03-30.6Q280.53-30.6 280.53-26L280.53-26 280.53-20.3 292.08-20.3 292.08-15.9 280.53-15.9 280.53-4.4 295.73-4.4Z" opacity="1" transform="matrix(1,0,0,1,0,0)" fill="#113f67" class="wordmark-text-0" data-fill-palette-color="primary" id="text-0"></path></svg></g></svg></g></svg></g></svg></g><g><svg viewBox="0 0 62.24873909221349 68.15103453458582" height="68.15103453458582" width="62.24873909221349"><g><svg xmlns="http://www.w3.org/2000/svg" xmlns:xlink="http://www.w3.org/1999/xlink" version="1.1" x="0" y="0" viewBox="12.499999999999998 5.000000000000001 82.20545082783843 89.99999999999999" enable-background="new 0 0 100 100" xml:space="preserve" height="68.15103453458582" width="62.24873909221349" class="icon-icon-0" data-fill-palette-color="accent" id="icon-0"><g fill="#113f67" data-fill-palette-color="accent"><path d="M62.5 8.8H56c-0.8 0-1.6-0.2-2.3-0.5 0-0.3 0-0.5 0-0.8 0-1.4-1.1-2.5-2.5-2.5h-2.5c-1.4 0-2.5 1.1-2.5 2.5 0 2.4 0.4 4.6 1.1 6.7-1.2 2.9-3.1 5.9-5.2 9.2-5.4 8.3-12 18.6-12.1 36.4-0.6-0.1-1.2-0.3-1.8-0.4-1.5-0.4-3-0.7-4.5-0.7-2.1 0-3.9 0.7-5.3 2.1-3.8 3.8-5.9 8.8-5.9 14.1s2.1 10.4 5.9 14.1c3.8 3.8 8.8 5.9 14.1 5.9s10.4-2.1 14.1-5.9c1.3-1.3 2.4-2.8 3.3-4.4 0.9 1.6 2 3.2 3.4 4.5 3.8 3.8 8.8 5.9 14.1 5.9s10.4-2.1 14.1-5.9c3.8-3.8 5.9-8.8 5.9-14.1s-2.1-10.4-5.9-14.1c-1.4-1.4-3.3-2.2-5.4-2.2-1.5 0-3 0.3-4.5 0.7-0.6 0.1-1.2 0.3-1.8 0.4-0.1-17.8-6.7-28.1-12.1-36.4-2.2-3.3-4-6.2-5.2-9.2 0.1-0.3 0.2-0.6 0.2-0.9 1 0.3 2.1 0.5 3.1 0.5h4c1 18.8 12.9 30 32.4 30 1.4 0 2.5-1.1 2.5-2.5C95 20.9 82.9 8.8 62.5 8.8zM43.1 85.5c-2.8 2.8-6.6 4.4-10.6 4.4s-7.8-1.6-10.6-4.4c-2.8-2.8-4.4-6.6-4.4-10.6 0-4 1.6-7.8 4.4-10.6 0.5-0.5 1-0.7 1.8-0.7 0.9 0 2.1 0.3 3.4 0.6 1.6 0.4 3.5 0.8 5.5 0.8 2 0 3.8-0.4 5.5-0.8 1.2-0.3 2.4-0.6 3.4-0.6 0.8 0 1.3 0.2 1.8 0.7 2.8 2.8 4.4 6.6 4.4 10.6C47.5 78.9 45.9 82.6 43.1 85.5zM72.9 64.2c1.2-0.3 2.4-0.5 3.4-0.5 0.8 0 1.4 0.2 1.9 0.7 2.8 2.8 4.4 6.6 4.4 10.6s-1.6 7.8-4.4 10.6c-2.8 2.8-6.6 4.4-10.6 4.4s-7.8-1.6-10.6-4.4c-2.8-2.8-4.4-6.6-4.4-10.6s1.6-7.8 4.4-10.6c0.5-0.5 1-0.7 1.9-0.7 0.9 0 2.1 0.3 3.4 0.5 1.6 0.4 3.4 0.8 5.4 0.8S71.3 64.6 72.9 64.2zM53.7 26.1C59 34.2 64.9 43.4 65 59.7c-0.6-0.1-1.2-0.2-1.8-0.4-1.5-0.3-3-0.7-4.5-0.7-2.2 0-4 0.7-5.4 2.2-1.3 1.3-2.4 2.8-3.3 4.4-0.9-1.6-2-3.2-3.4-4.5-1.4-1.4-3.2-2.1-5.3-2.1-1.5 0-3 0.4-4.5 0.7-0.6 0.1-1.2 0.3-1.8 0.4 0.1-16.3 6-25.5 11.3-33.7 1.3-2 2.6-4 3.7-6C51.1 22.1 52.4 24 53.7 26.1zM65.1 13.8c15 0.9 23.9 9.8 24.8 24.8C74.9 37.8 66 28.9 65.1 13.8z" fill="#113f67" data-fill-palette-color="accent"></path><path d="M32.5 79.9c-1.3 0-2.6-0.5-3.5-1.5-0.9-0.9-1.5-2.2-1.5-3.5 0-1.4-1.1-2.5-2.5-2.5s-2.5 1.1-2.5 2.5c0 2.7 1 5.2 2.9 7.1 1.9 1.9 4.4 2.9 7.1 2.9 1.4 0 2.5-1.1 2.5-2.5S33.9 79.9 32.5 79.9z" fill="#113f67" data-fill-palette-color="accent"></path><path d="M60 72.5c-1.4 0-2.5 1.1-2.5 2.5 0 2.7 1 5.2 2.9 7.1 1.9 1.9 4.4 2.9 7.1 2.9 1.4 0 2.5-1.1 2.5-2.5S68.9 80 67.5 80c-1.3 0-2.6-0.5-3.5-1.5-0.9-0.9-1.5-2.2-1.5-3.5C62.5 73.6 61.4 72.5 60 72.5z" fill="#113f67" data-fill-palette-color="accent"></path></g></svg></g></svg></g></svg></g><defs></defs></svg><rect width="395.52" height="55.520367342888925" fill="none" stroke="none" visibility="hidden"></rect></g></svg>
